<?xml version="1.0" encoding="utf-8"?>
<!-- Generator: Adobe Illustrator 18.0.0, SVG Export Plug-In . SVG Version: 6.00 Build 0)  -->
<!DOCTYPE svg PUBLIC "-//W3C//DTD SVG 1.1//EN" "http://www.w3.org/Graphics/SVG/1.1/DTD/svg11.dtd">
<svg version="1.1" id="Layer_1" xmlns="http://www.w3.org/2000/svg" xmlns:xlink="http://www.w3.org/1999/xlink" x="0px" y="0px"
	 viewBox="0 0 176 48" enable-background="new 0 0 176 48" xml:space="preserve">
<g>
	<path fill="#242326" d="M93.1,37.2v-0.8c-6.4-0.3-11.4-5.6-11.4-12s5.1-11.7,11.4-12v-0.8c-6.8,0.3-12.2,5.9-12.2,12.8
		S86.3,36.9,93.1,37.2z"/>
	<path fill="#242326" d="M93.1,42.4v-0.8c-9.2-0.3-16.6-7.9-16.6-17.1S83.9,7.6,93.1,7.3V6.6c-9.6,0.3-17.3,8.2-17.3,17.9
		S83.5,42.1,93.1,42.4z"/>
	<path fill="#242326" d="M93.1,31.6V17.4c-3.7,0.3-6.5,3.4-6.5,7.1S89.5,31.3,93.1,31.6z M91.6,18.5l0.8-0.3v12.5l-0.8-0.3
		c-2.5-0.9-4.2-3.3-4.2-6S89,19.4,91.6,18.5z"/>
	<path fill="#242326" d="M131.6,11.7v0.8c6.4,0.3,11.4,5.6,11.4,12s-5.1,11.7-11.4,12v0.8c6.8-0.3,12.2-5.9,12.2-12.8
		S138.4,12,131.6,11.7z"/>
	<path fill="#242326" d="M131.6,6.6v0.8c9.2,0.3,16.6,7.9,16.6,17.1s-7.4,16.8-16.6,17.1v0.8c9.6-0.3,17.3-8.2,17.3-17.9
		S141.2,6.9,131.6,6.6z"/>
	<path fill="#242326" d="M114.7,42.4v-0.8c-9.2-0.3-16.6-7.9-16.6-17.1s7.4-16.8,16.6-17.1V6.6c-9.6,0.3-17.3,8.2-17.3,17.9
		S105.1,42.1,114.7,42.4z"/>
	<path fill="#242326" d="M114.7,32.5v-0.8c-3.8-0.3-6.7-3.5-6.7-7.3s3-7,6.7-7.3v-0.8c-4.2,0.3-7.5,3.8-7.5,8.1
		S110.5,32.2,114.7,32.5z"/>
	<path fill="#242326" d="M23.3,7.6l19.6,33.9l7.5-13l7.5,13L77.5,7.6H23.3z M61.1,8.3l-3,5.3H42.7l-3-5.3H61.1z M58.5,14.4h6.7
		l-7.4,12.8l-3.4-5.8L58.5,14.4z M54.1,20.5l-3.6-6.2h7.1L54.1,20.5z M43.1,14.4h7.1l-3.6,6.2L43.1,14.4z M46.2,21.3l-3.4,5.8
		l-7.4-12.8h6.7L46.2,21.3z M42.9,39.9L24.6,8.3h14.1l3,5.3h-7.6l8.7,15.1l3.8-6.6l3.2,5.6L42.9,39.9z M47.1,21.3l3.2-5.6l3.2,5.6
		l-3.2,5.6L47.1,21.3z M50.8,27.7l3.2-5.6l3.8,6.6l8.7-15.1H59l3-5.3h14.1L57.9,39.9L50.8,27.7z"/>
	<path fill="#242326" d="M120.6,42.6h6.6V6.8h-6.6V42.6z M121.4,7.6h5.1v34.3h-5.1V7.6z"/>
</g>
</svg>
