<?xml version="1.0" encoding="utf-8"?>
<!-- Generator: Adobe Illustrator 18.0.0, SVG Export Plug-In . SVG Version: 6.00 Build 0)  -->
<!DOCTYPE svg PUBLIC "-//W3C//DTD SVG 1.1//EN" "http://www.w3.org/Graphics/SVG/1.1/DTD/svg11.dtd">
<svg version="1.1" id="Layer_1" xmlns="http://www.w3.org/2000/svg" xmlns:xlink="http://www.w3.org/1999/xlink" x="0px" y="0px"
	 viewBox="0 0 155.2 144" enable-background="new 0 0 155.2 144" xml:space="preserve">
<g>
	<g>
		<g id="XMLID_1_">
			<g>
				<path fill="#242326" d="M151.3,119.6c0.6,0,1.1-0.1,1.1-0.7c0-0.6-0.5-0.7-0.9-0.7h-0.9v1.4H151.3z M151.6,117.8
					c0.9,0,1.4,0.4,1.4,1.1c0,0.6-0.4,1-1,1.1l-0.1,0l1.2,1.8h-0.6l-1.1-1.7l0,0h-0.7v1.8H150v-4H151.6z"/>
				<path fill="#242326" d="M151.3,123.1c1.8,0,3.3-1.4,3.3-3.3c0-1.9-1.4-3.3-3.3-3.3c-1.8,0-3.3,1.5-3.3,3.3
					C148.1,121.7,149.5,123.1,151.3,123.1z M151.3,116c2.1,0,3.8,1.7,3.8,3.8c0,2.2-1.7,3.8-3.8,3.8c-2.1,0-3.8-1.7-3.8-3.8
					C147.5,117.6,149.2,116,151.3,116z"/>
				<path fill="#242326" d="M144,10.4v123.2c0,5.7-4.8,10.4-10.7,10.4H10.6C4.8,144,0,139.3,0,133.6V10.4C0,4.7,4.8,0,10.6,0h122.7
					C139.2,0,144,4.7,144,10.4z M122.7,122.7V85c0-18.5-4-32.7-25.6-32.7c-10.4,0-17.3,5.7-20.2,11.1h-0.3V54H56.1v68.7h21.3v-34
					c0-9,1.7-17.7,12.8-17.7c11,0,11.1,10.3,11.1,18.2v33.4H122.7z M42.7,122.7V54H21.4v68.7H42.7z M44.4,32.2
					c0-6.8-5.5-12.4-12.4-12.4c-6.8,0-12.4,5.5-12.4,12.4c0,6.8,5.5,12.4,12.4,12.4C38.9,44.6,44.4,39,44.4,32.2z"/>
			</g>
			<g>
			</g>
		</g>
	</g>
</g>
</svg>
