<?xml version="1.0" encoding="utf-8"?>
<!-- Generator: Adobe Illustrator 18.0.0, SVG Export Plug-In . SVG Version: 6.00 Build 0)  -->
<!DOCTYPE svg PUBLIC "-//W3C//DTD SVG 1.1//EN" "http://www.w3.org/Graphics/SVG/1.1/DTD/svg11.dtd">
<svg version="1.1" id="Layer_1" xmlns="http://www.w3.org/2000/svg" xmlns:xlink="http://www.w3.org/1999/xlink" x="0px" y="0px"
	 viewBox="0 0 2000 1625.4" enable-background="new 0 0 2000 1625.4" xml:space="preserve">
<g id="XMLID_1_">
	<g>
		<path fill="#FFFFFF" d="M2000,192.4c-55,82.3-124.6,154.6-204.8,212.4c0.8,17.6,1.2,35.3,1.2,53.1
			c0,542.2-412.7,1167.5-1167.5,1167.5c-231.7,0-447.4-67.9-629-184.4c32.1,3.8,64.8,5.7,97.9,5.7c192.3,0,369.2-65.6,509.6-175.7
			c-179.5-3.3-331.1-121.9-383.3-284.9c25.1,4.8,50.8,7.4,77.2,7.4c37.4,0,73.7-5,108.1-14.4C221.8,941.4,80.3,775.6,80.3,576.8
			c0-1.7,0-3.5,0-5.2c55.3,30.7,118.6,49.2,185.9,51.3C156.1,549.3,83.7,423.8,83.7,281.4c0-75.2,20.2-145.7,55.6-206.3
			C341.6,323.4,644,486.7,985,503.8c-7-30-10.6-61.4-10.6-93.5C974.3,183.7,1158.1,0,1384.7,0c118,0,224.7,49.8,299.5,129.6
			c93.5-18.4,181.3-52.5,260.6-99.6c-30.6,95.8-95.7,176.2-180.4,227C1847.3,247.1,1926.4,225,2000,192.4z"/>
	</g>
	<g>
	</g>
</g>
</svg>
